<svg xmlns="http://www.w3.org/2000/svg" xmlns:xlink="http://www.w3.org/1999/xlink" width="3314" height="2492" viewBox="0 0 3314 2492">
  <defs>
    <clipPath id="clip-path">
      <rect width="3314" height="2492" fill="none"/>
    </clipPath>
    <clipPath id="clip-path-2">
      <rect id="Background" width="3314" height="2489" fill="#060039"/>
    </clipPath>
  </defs>
  <g id="Componente_6_2" data-name="Componente 6 – 2" clip-path="url(#clip-path)">
    <rect id="Background-2" data-name="Background" width="3314" height="2489" fill="#060039"/>
    <g id="Enmascarar_grupo_8" data-name="Enmascarar grupo 8" transform="translate(0 3)" clip-path="url(#clip-path-2)">
      <g id="Taieri" transform="translate(-37.08 -252.639)">
        <path id="Shape" d="M243.522,0c0,67.928-54.513,122.993-121.761,122.993S0,67.928,0,0" transform="translate(3144.605 2118.441)" fill="none" stroke="#44ab96" stroke-linecap="round" stroke-linejoin="round" stroke-miterlimit="10" stroke-width="10.947"/>
        <path id="Shape-2" data-name="Shape" d="M152.466,307.481C68.254,307.481,0,238.65,0,153.741S68.254,0,152.466,0" transform="translate(3235.661 21.206)" fill="none" stroke="#e53855" stroke-linecap="round" stroke-linejoin="round" stroke-miterlimit="10" stroke-width="10.947"/>
        <path id="Shape-3" data-name="Shape" d="M0,144a127.055,127.055,0,1,0,254.11,0V0" transform="translate(1190.08 2.121)" fill="none" stroke="#44ab96" stroke-linecap="round" stroke-linejoin="round" stroke-miterlimit="10" stroke-width="10.947"/>
        <path id="Shape-4" data-name="Shape" d="M286.371,570.431C128.213,570.431,0,442.746,0,285.216S128.213,0,286.371,0H548.453" transform="translate(4.235 2423.802)" fill="none" stroke="#ffb017" stroke-linecap="round" stroke-linejoin="round" stroke-miterlimit="10" stroke-width="10.947"/>
        <path id="Shape-5" data-name="Shape" d="M95.249,184.489C42.644,184.489,0,143.193,0,92.244S42.644,0,95.249,0H196.935" transform="translate(177.877 2614.652)" fill="none" stroke="#44ab96" stroke-linecap="round" stroke-linejoin="round" stroke-miterlimit="10" stroke-width="10.947"/>
        <path id="Shape-6" data-name="Shape" d="M563.276,0H147.441C66.011,0,0,64.561,0,144.2" transform="translate(0 2.121)" fill="none" stroke="#44ab96" stroke-linecap="round" stroke-linejoin="round" stroke-miterlimit="10" stroke-width="10.947"/>
        <path id="Shape-7" data-name="Shape" d="M-287.153,0H245.929C350.166-.151,434.79,84.346,434.942,188.73" transform="translate(2654.606 6.362)" fill="none" stroke="#4484ab" stroke-linecap="round" stroke-linejoin="round" stroke-miterlimit="10" stroke-width="10.947"/>
        <path id="Shape-8" data-name="Shape" d="M254.11,483.9V126.965a127.055,127.055,0,1,0-254.11,0v55.247" transform="translate(3134.018 495.803)" fill="none" stroke="#da774a" stroke-linecap="round" stroke-linejoin="round" stroke-miterlimit="10" stroke-width="10.947"/>
        <ellipse id="Shape-9" data-name="Shape" cx="84.703" cy="84.822" rx="84.703" ry="84.822" transform="translate(1160.433 748.558)" fill="none" stroke="#44ab96" stroke-linecap="round" stroke-linejoin="round" stroke-miterlimit="10" stroke-width="10.947"/>
        <ellipse id="Shape-10" data-name="Shape" cx="122.82" cy="121.932" rx="122.82" ry="121.932" transform="translate(1355.251 2413.199)" fill="none" stroke="#e53855" stroke-linecap="round" stroke-linejoin="round" stroke-miterlimit="10" stroke-width="10.947"/>
        <ellipse id="Shape-11" data-name="Shape" cx="133.408" cy="133.595" rx="133.408" ry="133.595" transform="translate(256.227 411.389)" fill="none" stroke="#44ab96" stroke-linecap="round" stroke-linejoin="round" stroke-miterlimit="10" stroke-width="10.947"/>
        <path id="Shape-12" data-name="Shape" d="M297.52,587.4c164.324,0,297.52-131.492,297.52-293.7S461.844,0,297.52,0,0,131.492,0,293.7" transform="translate(93.173 248.106)" fill="none" stroke="#ffb017" stroke-linecap="round" stroke-linejoin="round" stroke-miterlimit="10" stroke-width="10.947"/>
        <path id="Shape-13" data-name="Shape" d="M11.033,225.749C-34.169,395,63.617,568.338,229.432,612.923s336.907-56.511,382.1-225.761S558.952,44.581,393.137,0" transform="translate(2765.558 2370.787)" fill="none" stroke="#44ab96" stroke-linecap="round" stroke-linejoin="round" stroke-miterlimit="10" stroke-width="10.947"/>
        <path id="Shape-14" data-name="Shape" d="M121.761,0A121.932,121.932,0,1,0,243.522,121.932V0" transform="translate(573.864 877.912)" fill="none" stroke="#44ab96" stroke-linecap="round" stroke-linejoin="round" stroke-miterlimit="10" stroke-width="10.947"/>
        <path id="Shape-15" data-name="Shape" d="M0,162.223c0,89.594,72.053,162.223,160.936,162.223s160.936-72.629,160.936-162.223S249.819,0,160.936,0H0" transform="translate(732.682 2.121)" fill="none" stroke="#e53855" stroke-linecap="round" stroke-linejoin="round" stroke-miterlimit="10" stroke-width="10.947"/>
        <path id="Shape-16" data-name="Shape" d="M140.819,279.028C63.047,279.028,0,216.567,0,139.514S63.047,0,140.819,0,281.638,62.461,281.638,139.514V566.19" transform="translate(10.588 1558.613)" fill="none" stroke="#44ab96" stroke-linecap="round" stroke-linejoin="round" stroke-miterlimit="10" stroke-width="10.947"/>
        <path id="Shape-17" data-name="Shape" d="M298.553,129.354c0,71.44,56.9,129.354,127.08,129.354s127.055-57.915,127.055-129.354S495.812,0,425.634,0H0" transform="translate(2797.323 1715.534)" fill="none" stroke="#44ab96" stroke-linecap="round" stroke-linejoin="round" stroke-miterlimit="10" stroke-width="10.947"/>
        <path id="Shape-18" data-name="Shape" d="M135.525,296.435C60.677,296.435,0,356.348,0,430.243S60.677,564.069,135.525,564.069,271.05,504.157,271.05,430.262V0" transform="translate(1910.057)" fill="none" stroke="#4484ab" stroke-linecap="round" stroke-linejoin="round" stroke-miterlimit="10" stroke-width="10.947"/>
        <path id="Shape-19" data-name="Shape" d="M71.826,122.993C71.826,55.065,126.379,0,193.674,0S315.519,55.065,315.519,122.993,260.968,245.985,193.672,245.985H0" transform="translate(1865.588 2748.248)" fill="none" stroke="#44ab96" stroke-linecap="round" stroke-linejoin="round" stroke-miterlimit="10" stroke-width="10.947"/>
        <path id="Shape-20" data-name="Shape" d="M121.761,332.033A121.321,121.321,0,1,1,0,453.353V0" transform="translate(2185.342 860.948)" fill="none" stroke="#da774a" stroke-linecap="round" stroke-linejoin="round" stroke-miterlimit="10" stroke-width="10.947"/>
        <path id="Shape-21" data-name="Shape" d="M121.761,370.479C54.515,370.479,0,424.259,0,490.6S54.515,610.722,121.761,610.722,243.522,556.942,243.522,490.6V0" transform="translate(10.588 835.501)" fill="none" stroke="#da774a" stroke-linecap="round" stroke-linejoin="round" stroke-miterlimit="10" stroke-width="10.947"/>
        <path id="Shape-22" data-name="Shape" d="M429.233,218.418C429.233,97.79,333.144,0,214.612,0S0,97.79,0,218.418,96.089,436.836,214.621,436.836H777.152" transform="translate(1029.144 617.083)" fill="none" stroke="#ffb017" stroke-linecap="round" stroke-linejoin="round" stroke-miterlimit="10" stroke-width="10.947"/>
        <path id="Shape-23" data-name="Shape" d="M562.52,436.836c118.555,0,214.631-97.79,214.631-218.418S681.075,0,562.52,0H0" transform="translate(2610.976 1104.812)" fill="none" stroke="#44ab96" stroke-linecap="round" stroke-linejoin="round" stroke-miterlimit="10" stroke-width="10.947"/>
        <path id="Shape-24" data-name="Shape" d="M0,204.634C0,91.608,90.5,0,202.148,0H409.834C521.486,0,611.98,91.608,611.98,204.634h0c0,113.026-90.495,204.634-202.148,204.634H202.148C90.5,409.268,0,317.66,0,204.634Z" transform="translate(2344.16 167.524)" fill="none" stroke="#da774a" stroke-linecap="round" stroke-linejoin="round" stroke-miterlimit="10" stroke-width="10.947"/>
        <path id="Shape-25" data-name="Shape" d="M126,610.722A125.978,125.978,0,0,1,0,484.76v-358.8A125.978,125.978,0,0,1,126,0h0a125.978,125.978,0,0,1,126,125.961v358.8A125.978,125.978,0,0,1,126,610.722Z" transform="translate(438.339 1236.287)" fill="none" stroke="#ffb017" stroke-linecap="round" stroke-linejoin="round" stroke-miterlimit="10" stroke-width="10.947"/>
        <path id="Shape-26" data-name="Shape" d="M0,287.336V97.9A98.184,98.184,0,0,1,98.467,0h0a98.184,98.184,0,0,1,98.467,97.9V476.775a98.184,98.184,0,0,1-98.467,97.9h0A98.184,98.184,0,0,1,0,476.775V431" transform="translate(1753.356 1399.57)" fill="none" stroke="#e53855" stroke-linecap="round" stroke-linejoin="round" stroke-miterlimit="10" stroke-width="10.947"/>
        <path id="Shape-27" data-name="Shape" d="M340.93,672.07v16.515c-.127,94.15-76.447,170.371-170.465,170.243h0C76.448,858.955.129,782.736,0,688.587V170.241C.129,76.091,76.448-.128,170.465,0h0C264.482-.128,340.8,76.091,340.93,170.241v5.089" transform="translate(1594.537 2.12)" fill="none" stroke="#ffb017" stroke-linecap="round" stroke-linejoin="round" stroke-miterlimit="10" stroke-width="10.947"/>
        <path id="Shape-28" data-name="Shape" d="M141.348,0H131.161C58.687.035-.036,58.9,0,131.475H0c-.036,72.576,58.687,131.44,131.161,131.475H434.233c72.474-.035,131.2-58.9,131.161-131.475h0C565.43,58.9,506.707.035,434.233,0H424.045" transform="translate(10.588 2018.774)" fill="none" stroke="#ffb017" stroke-linecap="round" stroke-linejoin="round" stroke-miterlimit="10" stroke-width="10.947"/>
        <path id="Shape-29" data-name="Shape" d="M0,0V491.2C0,638.02,119.931,757.04,267.874,757.04S535.748,638.02,535.748,491.2V375.146" transform="translate(1590.302 1399.571)" fill="none" stroke="#44ab96" stroke-linecap="round" stroke-linejoin="round" stroke-miterlimit="10" stroke-width="10.947"/>
        <path id="Shape-30" data-name="Shape" d="M0,0H440.033C607.508,0,743.27,136.715,743.27,305.361S607.508,610.722,440.033,610.722H307.659" transform="translate(1052.437 2230.831)" fill="none" stroke="#44ab96" stroke-linecap="round" stroke-linejoin="round" stroke-miterlimit="10" stroke-width="10.947"/>
        <path id="Shape-31" data-name="Shape" d="M231.055,254.467H126.9A127.234,127.234,0,0,1,126.9,0H335.21A126.948,126.948,0,0,1,461.871,127.234v11.3A115.67,115.67,0,0,1,346.463,254.467" transform="translate(1009.847 1232.046)" fill="none" stroke="#4484ab" stroke-linecap="round" stroke-linejoin="round" stroke-miterlimit="10" stroke-width="10.947"/>
        <path id="Shape-32" data-name="Shape" d="M263.639,273.552H382.606c79.894,0,144.671-61.238,144.671-136.776S462.5,0,382.606,0H144.671C64.77,0,0,61.238,0,136.776" transform="translate(2043.464 727.353)" fill="none" stroke="#44ab96" stroke-linecap="round" stroke-linejoin="round" stroke-miterlimit="10" stroke-width="10.947"/>
        <path id="Shape-33" data-name="Shape" d="M611.98,0h-285.2C146.306,0,0,147.167,0,328.687" transform="translate(817.386 430.474)" fill="none" stroke="#44ab96" stroke-linecap="round" stroke-linejoin="round" stroke-miterlimit="10" stroke-width="10.947"/>
        <path id="Shape-34" data-name="Shape" d="M121.761,667.638c67.248,0,121.761,54.2,121.761,121.042S189.009,909.721,121.761,909.721,0,855.519,0,788.679V0" transform="translate(2947.671 1891.541)" fill="none" stroke="#e53855" stroke-linecap="round" stroke-linejoin="round" stroke-miterlimit="10" stroke-width="10.947"/>
        <path id="Shape-35" data-name="Shape" d="M0,224.78C0,100.64,99.2,0,221.573,0H611.98" transform="translate(2157.813 2413.199)" fill="none" stroke="#44ab96" stroke-linecap="round" stroke-linejoin="round" stroke-miterlimit="10" stroke-width="10.947"/>
        <path id="Shape-36" data-name="Shape" d="M0,254.467H208.313c139.9,0,253.32-113.929,253.32-254.467" transform="translate(1581.832 977.579)" fill="none" stroke="#4484ab" stroke-linecap="round" stroke-linejoin="round" stroke-miterlimit="10" stroke-width="10.947"/>
        <path id="Shape-37" data-name="Shape" d="M370.576,0V113.991c0,115.044-93.166,208.338-208.09,208.335H0" transform="translate(2426.746 1895.782)" fill="none" stroke="#4484ab" stroke-linecap="round" stroke-linejoin="round" stroke-miterlimit="10" stroke-width="10.947"/>
        <path id="Shape-38" data-name="Shape" d="M410.81,0H232.919C104.274,0,0,105.392,0,235.382" transform="translate(2780.382 1327.471)" fill="none" stroke="#da774a" stroke-linecap="round" stroke-linejoin="round" stroke-miterlimit="10" stroke-width="10.947"/>
        <path id="Shape-39" data-name="Shape" d="M0,421.992V228.77C0,117.517,86.768,24.323,203.288,0" transform="translate(461.632 2572.241)" fill="none" stroke="#44ab96" stroke-linecap="round" stroke-linejoin="round" stroke-miterlimit="10" stroke-width="10.947"/>
        <path id="Shape-40" data-name="Shape" d="M.421,0V390.183" transform="translate(93.811 691.303)" fill="none" stroke="#44ab96" stroke-linecap="round" stroke-linejoin="round" stroke-miterlimit="10" stroke-width="10.947"/>
        <path id="Shape-41" data-name="Shape" d="M0,.421H802.563" transform="translate(923.265 2992.751)" fill="none" stroke="#44ab96" stroke-linecap="round" stroke-linejoin="round" stroke-miterlimit="10" stroke-width="10.947"/>
        <path id="Shape-42" data-name="Shape" d="M.421,0V322.325" transform="translate(2304.564 1588.3)" fill="none" stroke="#44ab96" stroke-linecap="round" stroke-linejoin="round" stroke-miterlimit="10" stroke-width="10.947"/>
        <path id="Shape-43" data-name="Shape" d="M.421,0V131.475" transform="translate(1978.457 2464.092)" fill="none" stroke="#44ab96" stroke-linecap="round" stroke-linejoin="round" stroke-miterlimit="10" stroke-width="10.947"/>
        <path id="Shape-44" data-name="Shape" d="M438.339,101.62v43A109.926,109.926,0,0,1,328.346,254.467h0A109.931,109.931,0,0,1,218.322,144.622V109A109.085,109.085,0,0,0,109.176,0h0A109.089,109.089,0,0,0,0,109v43.851" transform="translate(2697.796 725.232)" fill="none" stroke="#e53855" stroke-linecap="round" stroke-linejoin="round" stroke-miterlimit="10" stroke-width="10.947"/>
        <path id="Shape-45" data-name="Shape" d="M0,154.731C.022,69.257,69.23-.016,154.583,0h0c85.378,0,154.573,69.284,154.583,154.757V267.263c-.026,85.472-69.232,154.743-154.583,154.729h0C69.2,421.992.006,352.7,0,267.231Z" transform="translate(2306.044 2572.241)" fill="none" stroke="#4484ab" stroke-linecap="round" stroke-linejoin="round" stroke-miterlimit="10" stroke-width="10.947"/>
        <g id="Group_30" data-name="Group 30" transform="translate(656.302 1246.889)">
          <path id="Shape-46" data-name="Shape" d="M0,0V136.32C0,302.36,134.255,436.976,299.889,436.976H419.334c99.684.129,180.43,81.081,180.445,180.905h0" transform="translate(192.345)" fill="none" stroke="#da774a" stroke-linecap="round" stroke-linejoin="round" stroke-miterlimit="10" stroke-width="10.947"/>
          <path id="Shape-47" data-name="Shape" d="M553.389,0H173.415C77.641,0,0,77.339,0,172.741S77.641,345.482,173.415,345.482H330.241" transform="translate(238.734 800.588)" fill="none" stroke="#da774a" stroke-linecap="round" stroke-linejoin="round" stroke-miterlimit="10" stroke-width="10.947"/>
          <path id="Shape-48" data-name="Shape" d="M143.746,421.888H121.088a121.317,121.317,0,0,1,0-242.635H391.255C490.057,179.2,570.106,98.942,570.046,0" transform="translate(0.059 1325.454)" fill="none" stroke="#da774a" stroke-linecap="round" stroke-linejoin="round" stroke-miterlimit="10" stroke-width="10.947"/>
        </g>
      </g>
    </g>
  </g>
</svg>
